<svg width="115" height="75" viewBox="0 0 115 75" fill="none" xmlns="http://www.w3.org/2000/svg">
<path d="M48.8125 11.6562C48.5625 11.5312 48.1875 12.25 47.6875 13.8125C47.25 15.3125 46.6562 17.2812 45.9062 19.7188C45.1562 22.0938 44.3438 24.8125 43.4688 27.875C42.6562 30.875 41.75 33.875 40.75 36.875C39.75 39.875 38.75 42.6875 37.75 45.3125C36.75 47.875 35.75 49.9062 34.75 51.4062C33.75 52.9062 32.8125 53.75 31.9375 53.9375C31.0625 54.0625 30.2812 53.1562 29.5938 51.2188C29.0938 50.3438 28.375 48.9688 27.4375 47.0938C26.5625 45.1562 25.5312 43 24.3438 40.625C23.1562 38.25 21.9062 35.75 20.5938 33.125C19.2812 30.5 18.0312 28.0312 16.8438 25.7188C15.7188 23.3438 14.6562 21.2188 13.6562 19.3438C12.7188 17.4688 12.0312 16.0938 11.5938 15.2188C10.8438 13.8438 10.1562 12.75 9.53125 11.9375C8.96875 11.0625 8.0625 10.625 6.8125 10.625C6.8125 15 7.0625 19.8125 7.5625 25.0625C8.0625 30.3125 8.59375 35.625 9.15625 41C9.78125 46.375 10.3438 51.6875 10.8438 56.9375C11.3438 62.125 11.5938 66.9375 11.5938 71.375C11.8438 71.9375 11.75 72.4688 11.3125 72.9688C10.9375 73.4688 10.375 73.8438 9.625 74.0938C8.9375 74.3438 8.15625 74.3438 7.28125 74.0938C6.46875 73.9062 5.78125 73.4062 5.21875 72.5938C4.65625 67.0312 4.34375 61.375 4.28125 55.625C4.28125 49.8125 4.25 44 4.1875 38.1875C4.125 32.375 3.875 26.5625 3.4375 20.75C3 14.875 2.125 9.03125 0.8125 3.21875C0.75 2.09375 0.9375 1.40625 1.375 1.15625C1.8125 0.84375 2.375 0.6875 3.0625 0.6875C4.5625 0.6875 5.90625 1.0625 7.09375 1.8125C8.34375 2.5 9.46875 3.40625 10.4688 4.53125C11.4688 5.59375 12.3438 6.78125 13.0938 8.09375C13.9062 9.40625 14.625 10.5937 15.25 11.6562C15.75 12.4687 16.4375 13.75 17.3125 15.5L20.3125 21.5938C21.4375 23.8438 22.5938 26.2188 23.7812 28.7188C25.0312 31.1562 26.2188 33.5 27.3438 35.75C28.4688 37.9375 29.5 39.9062 30.4375 41.6562C31.375 43.3438 32.0938 44.5625 32.5938 45.3125C32.8438 45.3125 33.0625 45.2188 33.25 45.0312C33.4375 44.8438 33.6875 44.3125 34 43.4375C34.375 42.5625 34.8438 41.2188 35.4062 39.4062C36.0312 37.5938 36.875 35.0938 37.9375 31.9062C39 28.7188 40.3125 24.6875 41.875 19.8125C43.4375 14.9375 45.3438 9 47.5938 2C47.7188 1.6875 48.125 1.40625 48.8125 1.15625C49.5 0.90625 50.125 0.78125 50.6875 0.78125C51.25 0.78125 51.625 0.96875 51.8125 1.34375C52.0625 1.71875 52.25 2.34375 52.375 3.21875C52.9375 8.53125 53.375 14.0938 53.6875 19.9062C54.0625 25.6562 54.5312 31.5 55.0938 37.4375C55.6562 43.3125 56.3438 49.1562 57.1562 54.9688C58.0312 60.7812 59.2188 66.3125 60.7188 71.5625L54.25 74.0938L48.8125 11.6562ZM68.125 70.3438C68 62.4062 67.8438 55.625 67.6562 50C67.5312 44.3125 67.4062 39.5312 67.2812 35.6562C67.1562 31.7812 67 28.7188 66.8125 26.4688C66.6875 24.1562 66.5938 22.3125 66.5312 20.9375C66.4688 19.5625 66.4062 18.5938 66.3438 18.0312C66.2812 17.4063 66.25 16.8125 66.25 16.25C66.25 15.1875 66.5625 14.5312 67.1875 14.2812C67.8125 13.9687 68.5938 13.8125 69.5312 13.8125C70.5938 13.8125 71.4062 14.0313 71.9688 14.4688C72.5938 14.8438 72.9062 15.875 72.9062 17.5625L74.6875 68C74.75 68 75.0625 67.9375 75.625 67.8125C76.1875 67.6875 76.8438 67.5 77.5938 67.25C78.3438 67 79.125 66.75 79.9375 66.5C80.75 66.1875 81.4062 65.9062 81.9062 65.6562C82.6562 65.3438 83.7812 64.8438 85.2812 64.1562C86.7812 63.4688 88.4688 62.6875 90.3438 61.8125C92.2188 60.9375 94.1875 60.0312 96.25 59.0938C98.375 58.0938 100.375 57.1875 102.25 56.375C104.188 55.5 105.875 54.7188 107.312 54.0312C108.812 53.2812 109.938 52.75 110.688 52.4375H111.812C112.188 52.4375 112.562 52.4688 112.938 52.5312C113.312 52.5938 113.625 52.75 113.875 53C114.125 53.25 114.281 53.625 114.344 54.125C114.344 54.75 114.219 55.2812 113.969 55.7188C113.781 56.1562 113.5 56.6562 113.125 57.2188C109.438 57.9062 105.812 59.1562 102.25 60.9688C98.75 62.7812 95.25 64.6562 91.75 66.5938C88.3125 68.5312 84.8125 70.25 81.25 71.75C77.75 73.25 74.1562 74 70.4688 74C68.9062 74 68.125 72.7812 68.125 70.3438Z" fill="black"/>
</svg>
